<mxfile host="app.diagrams.net" modified="2023-08-15T17:42:17.361Z" agent="Mozilla/5.0 (Linux; Android 10; K) AppleWebKit/537.36 (KHTML, like Gecko) Chrome/115.0.0.0 Safari/537.36" etag="TVgvFXZ9Ks-a-aPa6MfW" version="21.6.8" type="github">
  <diagram name="Page-1" id="9WAIFfzL8HhGb8ErKNlK">
    <mxGraphModel dx="1248" dy="1077" grid="0" gridSize="10" guides="1" tooltips="1" connect="1" arrows="1" fold="1" page="0" pageScale="1" pageWidth="850" pageHeight="1100" math="0" shadow="0">
      <root>
        <mxCell id="0" />
        <mxCell id="1" parent="0" />
        <mxCell id="QIs2LNPXuISDzYbTwmVR-1" value="" style="whiteSpace=wrap;html=1;aspect=fixed;fontSize=16;" parent="1" vertex="1">
          <mxGeometry x="-76" y="104" width="121" height="121" as="geometry" />
        </mxCell>
        <mxCell id="ZjUfWMKSzCGbeG4Rht9m-1" value="FRM" style="text;strokeColor=none;fillColor=none;html=1;align=center;verticalAlign=middle;whiteSpace=wrap;rounded=0;fontSize=16;" vertex="1" parent="1">
          <mxGeometry x="-314" y="-2" width="115" height="26" as="geometry" />
        </mxCell>
      </root>
    </mxGraphModel>
  </diagram>
</mxfile>
